<?xml version="1.0" encoding="utf-8" ?><svg xmlns="http://www.w3.org/2000/svg" xmlns:xlink="http://www.w3.org/1999/xlink" width="1024" height="1024" viewBox="0 0 1024 1024"><path fill="#6B3233" d="M495.371 278.718C545.931 277.642 596.459 282.059 646.066 291.893C657.304 294.14 668.739 296.637 679.845 299.453C683.863 300.471 687.306 302.18 689.215 306.01C692.516 312.632 691.943 321.517 692.068 328.676C692.516 354.264 689.351 377.689 682.248 402.178C664.927 461.898 622.65 509.725 568.34 538.994C559.744 543.627 553.051 547.176 543.852 551.002C539.065 552.993 529.946 556.836 525.665 559.237L525.058 559.581C525.383 563.772 524.988 570.687 525.084 575.251C525.492 594.669 525.172 614.175 525.207 633.62L525.295 676.934C525.294 682.385 525.66 692.902 525.14 697.878C538.995 695.224 546.786 694.287 560.765 690.012C566.11 688.325 571.319 686.234 576.347 683.757C584.718 679.731 588.358 676.796 597.809 677.066C598.512 677.427 599.203 677.811 599.881 678.217C604.889 681.282 606.51 686.036 607.734 691.342C607.065 693.676 606.429 695.723 604.862 697.63C592.419 712.77 547.355 721.587 527.903 723.848C495.683 726.138 464.345 721.462 435.027 707.421C429.34 704.697 424.337 703.304 420.026 698.344C412.33 689.489 421.209 674.951 432.251 676.697C435.757 677.275 441.149 680.061 444.539 681.815C462.095 690.901 479.542 694.987 499.029 697.778C498.625 692.919 498.9 685.656 498.921 680.592L498.972 649.407L498.506 558.629C462.808 544.781 435.23 529.94 406.405 504.508C362.084 464.67 335.32 408.918 331.956 349.419C331.63 344.199 331.594 338.686 331.426 333.557C330.328 300.002 333.848 301.011 364.393 294.599C397.72 287.522 431.487 282.704 465.463 280.175C475.692 279.396 485.298 279.312 495.371 278.718ZM358.466 323.207C355.999 377.044 371.854 428.133 408.248 468.481C434.548 497.638 475.132 523.581 512.727 535.029L522.14 530.976C613.488 493.66 669.316 425.037 665.54 323.442C624.227 312.484 574.612 306.156 531.764 305.104C522.614 304.879 508.404 304.599 499.454 305.238C461.577 305.852 424.951 310.027 387.731 317.192C377.981 319.068 368.215 321.481 358.466 323.207Z"/><path fill="#6B3233" d="M433.887 388.708C462.368 386.457 494.525 393.532 522.143 400.139C565.077 410.41 599.645 419.718 640.539 396.303C639.433 439.506 613.72 470.421 579.534 493.819C561 505.208 534.396 518.572 512.146 520.795C505.925 521.416 495.546 517.224 489.668 515.223C464.361 506.612 439.699 492.967 420.273 474.364C402.233 457.088 385.844 429.953 385.253 404.381C397.532 392.565 417.765 390 433.887 388.708Z"/><path fill="#6B3233" d="M803.012 242.03C818.733 260.55 831.176 274.251 844.917 294.511C897.283 372.53 921.205 466.193 912.664 559.768C906.7 632.225 878.61 703.812 835.882 762.263C828.106 772.9 812.438 793.238 802.638 801.918C802.334 791.25 798.167 781.127 794.108 771.378C800.945 764.17 809.955 752.063 815.667 744.064C849.051 697.489 871.751 644.122 882.147 587.768C898.383 495.834 879.993 401.145 830.525 321.973C823.724 310.988 816.335 300.379 808.392 290.189C805.115 286.069 797.338 277.369 794.792 273.648L794.299 272.916C795.306 268.574 798.212 263.904 799.551 259.759C801.218 254.6 802.105 247.49 803.012 242.03Z"/><path fill="#6B3233" d="M221.211 242.057C221.958 248.591 222.504 253.887 224.534 260.213C225.593 263.51 228.781 270.246 229.422 273.161C218.294 286.957 210.466 295.942 200.439 311.071C151.303 384.255 129.262 472.298 138.12 560.001C146.296 636.541 178.022 713.74 230.022 770.973C225.008 782.285 222.863 788.524 221.096 801.292C213.489 792.752 207.909 787.441 200.44 778.063C145.067 709.432 113.26 624.799 109.725 536.686C109.071 518.557 109.708 500.405 111.632 482.367C120.622 390.302 158.831 309.844 221.211 242.057Z"/><path fill="#6B3233" d="M297.892 176.784C320.257 163.138 338.582 152.863 363.3 142.831C439.882 112.444 523.94 106.264 604.143 125.125C646.179 135.292 691.014 152.819 726.728 177.581L725.985 177.923C713.768 183.481 712.977 181.489 704.598 194.746C691.388 187.55 678.604 180.445 665.044 174.279C564.386 128.511 447.066 130.207 347.984 179.593C338.671 184.235 328.636 191.106 319.329 195.033C313.32 182.289 306.894 183.915 297.892 176.784Z"/><path fill="#6B3233" d="M319.365 848.78C367.682 876.457 408.433 891.6 463.602 898.963C518.001 906.224 560.651 901.826 613.727 887.683C650.938 877.767 670.768 866.67 704.531 848.78C710.054 859.121 714.748 863.016 726.047 866.466C721.692 869.853 711.571 875.609 706.664 878.412C666.543 901.33 621.526 916.022 576.049 923.633C491.102 937.527 403.939 923.596 327.555 883.916C318.971 879.352 305.024 871.93 297.282 866.404C307.498 864.263 315.412 858.624 319.365 848.78Z"/><path fill="#C07342" d="M761.468 734.953C771.54 741.338 788.448 760.922 794.108 771.378C798.167 781.127 802.334 791.25 802.638 801.918C802.067 805.684 801.739 812.207 800.802 815.494C793.322 841.738 767.15 863.417 740.021 866.055C735.479 866.496 730.478 865.87 726.047 866.466C714.748 863.016 710.054 859.121 704.531 848.78C702.325 841.891 700.607 834.436 700.717 827.135C700.953 811.45 709.141 788.129 720.396 777.114C722.052 779.184 723.645 781.303 725.174 783.468C733.403 784.103 742.222 782.798 749.023 783.258C758.99 771.06 760.54 749.969 761.468 734.953Z"/><path fill="#EEEDED" d="M725.174 783.468C733.403 784.103 742.222 782.798 749.023 783.258C744.681 787.688 739.266 790.564 732.871 789.01C729.695 788.206 726.944 786.225 725.174 783.468Z"/><path fill="#C07342" d="M297.892 176.784C306.894 183.915 313.32 182.289 319.329 195.033C325.872 220.092 323.111 234.55 310.6 258.257C309.124 261.053 306.121 265.101 303.873 267.301C296.964 258.519 288.179 249.363 276.998 259.582C265.689 269.918 263.35 291.858 262.727 306.254L262.576 310.173C248.83 300.027 238.78 287.252 229.422 273.161C228.781 270.246 225.593 263.51 224.534 260.213C222.504 253.887 221.958 248.591 221.211 242.057C222.489 232.632 222.605 226.361 227.59 217.369C238.47 197.97 258.532 183.872 279.964 178.537C285.437 177.175 292.988 178.611 297.892 176.784Z"/><path fill="#C07342" d="M726.728 177.581L727.25 177.639C732.841 178.231 739.198 177.863 744.692 179.103C769.908 184.794 796.619 206.193 801.414 232.578C801.99 235.749 802.411 238.917 803.012 242.03C802.105 247.49 801.218 254.6 799.551 259.759C798.212 263.904 795.306 268.574 794.299 272.916C784.121 290.304 776.582 297.501 761.462 310C761.024 294.041 759.385 271.755 747.711 259.686C737.502 249.131 727.04 258.815 719.729 266.574C705.125 250.903 694.868 214.99 704.598 194.746C712.977 181.489 713.768 183.481 725.985 177.923L726.728 177.581Z"/><path fill="#C07342" d="M262.393 735.068C262.762 751.343 265.231 772.688 276.778 785.259C282.441 791.425 293.439 790.474 298.457 784.171C300.1 782.107 301.369 779.984 302.726 777.701C313.881 787.074 321.615 808.769 322.767 823.05C323.487 831.985 322.12 840.276 319.365 848.78C315.412 858.624 307.498 864.263 297.282 866.404C268.628 868.744 242.773 852.305 228.1 827.949C222.87 819.269 222.039 811.145 221.096 801.292C222.863 788.524 225.008 782.285 230.022 770.973C239.108 758.248 248.77 743.583 262.393 735.068Z"/></svg>